<svg clip-rule="evenodd" fill-rule="evenodd" stroke-linejoin="round" stroke-miterlimit="2" viewBox="0 0 1024 1024" xmlns="http://www.w3.org/2000/svg"><path d="m407.674 332.314c0-26.56-24.581-48.123-54.858-48.123h-233.146c-30.277 0-54.858 21.563-54.858 48.123v204.523c0 26.56 24.581 48.123 54.858 48.123h233.146c30.277 0 54.858-21.563 54.858-48.123z" transform="matrix(2.98662 0 0 3.40461 -193.57 -967.56)"/><g fill="#fff" fill-rule="nonzero" stroke="#000"><path d="m350.49 477.395c0 .621-.064 1.167-.193 1.637-.128.471-.313.865-.556 1.183-.243.317-.533.556-.872.717-.339.16-.715.241-1.129.241h-1.627v-7.577h1.638c.413 0 .79.08 1.129.241.338.16.627.401.866.722s.423.719.551 1.193c.129.475.193 1.022.193 1.643zm-.738 0c0-.535-.052-1-.155-1.396-.104-.396-.247-.723-.429-.98-.181-.256-.395-.449-.642-.577-.246-.129-.511-.193-.797-.193h-.877v6.271h.877c.286 0 .551-.064.797-.193.247-.128.461-.321.642-.578.182-.256.325-.581.429-.973.103-.393.155-.853.155-1.381z" stroke-width=".04" transform="matrix(122.49 0 0 100.31 -42039.5 -47374.4)"/><path d="m345.727 478.712.956-.084c.046.383.151.698.317.943.165.246.422.444.77.596.349.151.741.227 1.176.227.387 0 .728-.057 1.024-.172s.517-.273.661-.473c.145-.201.217-.419.217-.656 0-.24-.07-.45-.209-.63-.139-.179-.369-.33-.69-.452-.205-.08-.66-.204-1.364-.373-.703-.169-1.196-.329-1.478-.478-.366-.192-.639-.43-.818-.714s-.269-.601-.269-.953c0-.387.11-.748.329-1.084.219-.337.54-.592.961-.766.422-.174.89-.261 1.406-.261.568 0 1.069.091 1.502.274.434.183.768.452 1.001.807.233.356.359.758.376 1.207l-.972.074c-.052-.485-.229-.85-.53-1.098-.301-.247-.746-.371-1.335-.371-.613 0-1.06.113-1.34.337-.281.225-.421.496-.421.813 0 .275.099.501.298.679.195.178.704.36 1.528.546.824.187 1.389.349 1.696.489.446.205.775.466.987.781.213.315.319.678.319 1.089 0 .408-.117.792-.35 1.153-.233.36-.569.641-1.006.841s-.929.3-1.476.3c-.693 0-1.274-.101-1.743-.303-.468-.202-.836-.506-1.102-.912-.267-.405-.407-.864-.421-1.376z" stroke-width=".05" transform="matrix(83.3756 0 0 63.9612 -28679.6 -30019.4)"/></g></svg>